# xmcd CD database file
# Copyright (C) 1993-2000  Ti Kan
#
# Track frame offsets:
#	150
#	9900
#	21912
#	34775
#	51070
#	64035
#	77625
#	97175
#	111412
#	132260
#	144770
#	155560
#	169772
#	183435
#	194985
#	212085
#	226760
#	240460
#	254962
#	272322
#
# Disc length: 3803 seconds
#
# Revision: 67
# Processed by: cddbd v1.5.1PL2 Copyright (c) Steve Scherf et al.
# Submitted via: xmcd 2.6 PL0
#
DISCID=170ed914
DTITLE=Brenda Lee - The Legendary Brenda Lee [Disc 3]
DYEAR=1900
DGENRE=
TTITLE0=Jambalaya (On The Bayou)
TTITLE1=Your Cheatin' Heart
TTITLE2=Too Many Rivers
TTITLE3=Johnny One Time
TTITLE4=Always On My Mind
TTITLE5=Nobody Wins
TTITLE6=The Cowgirl And The Dandy
TTITLE7=Wrong Ideas
TTITLE8=Big Four Poster Bed
TTITLE9=Rock On Baby
TTITLE10=He's My Rock
TTITLE11=Bringing It Back
TTITLE12=Tell Me What It's Like
TTITLE13=Sunday Sunrise
TTITLE14=Broken Trust (With The Oak Ridge Boys)
TTITLE15=Every Now And Then
TTITLE16=Only When I Laugh
TTITLE17=Enough For You
TTITLE18=From Levis To Calvin Klein Jeans
TTITLE19=A Sweeter Love (I'll Never Know)
EXTD=Disc 1 - Emotions/Brenda's Greatest Hits, As Usual/More Great Hi
EXTD=ts\nDisc 2 - Pennies from Heaven/The Great Pop Standards, Side By
EXTD=Side/Brenda In Love, Sweet Memories\nDisc 3 - Too Many Rivers/Ea
EXTD=rly Country Favorites, Nobody Wins/Top 10 Country Hits, Tell Me 
EXTD=What It's Like/More Great Country Hits
EXTT0=
EXTT1=
EXTT2=
EXTT3=
EXTT4=
EXTT5=
EXTT6=
EXTT7=
EXTT8=
EXTT9=
EXTT10=
EXTT11=
EXTT12=
EXTT13=
EXTT14=
EXTT15=
EXTT16=
EXTT17=
EXTT18=
EXTT19=
PLAYORDER=
